<?xml version="1.0" encoding="iso-8859-1"?><!DOCTYPE svg PUBLIC "-//W3C//DTD SVG 1.1//EN" "http://www.w3.org/Graphics/SVG/1.1/DTD/svg11.dtd"><svg viewBox="0 0 612.02 612.02" xmlns="http://www.w3.org/2000/svg" xmlns:xlink="http://www.w3.org/1999/xlink"><style>:root>svg{display:none}:root>svg:target{display:block}</style><svg viewBox="0 0 612.02 612.02" id="doubleArrow" xmlns="http://www.w3.org/2000/svg"><path fill="#ef7f88" d="M596.96 269.674L342.381 15.094c-20.079-20.079-52.644-20.079-72.723 0s-20.079 52.644 0 72.723L487.852 306.01 269.658 524.202c-20.079 20.079-20.079 52.644 0 72.723s52.644 20.079 72.723 0L596.96 342.346c20.079-20.029 20.079-52.593 0-72.672zm-306.102-15.416L88.744 41.238c-20.309-21.378-53.204-21.378-73.513 0s-20.309 56.058 0 77.462l165.371 174.289L15.231 467.278c-20.309 21.379-20.309 56.083 0 77.462s53.204 21.379 73.513 0l202.114-213.02c20.309-21.378 20.309-56.058 0-77.462z"/></svg><svg viewBox="0 0 612.02 612.02" id="doubleArrowDark" xmlns="http://www.w3.org/2000/svg"><path fill="#cf5279" d="M596.96 269.674L342.381 15.094c-20.079-20.079-52.644-20.079-72.723 0s-20.079 52.644 0 72.723L487.852 306.01 269.658 524.202c-20.079 20.079-20.079 52.644 0 72.723s52.644 20.079 72.723 0L596.96 342.346c20.079-20.029 20.079-52.593 0-72.672zm-306.102-15.416L88.744 41.238c-20.309-21.378-53.204-21.378-73.513 0s-20.309 56.058 0 77.462l165.371 174.289L15.231 467.278c-20.309 21.379-20.309 56.083 0 77.462s53.204 21.379 73.513 0l202.114-213.02c20.309-21.378 20.309-56.058 0-77.462z"/></svg><svg viewBox="0 0 100 100" id="pause" xmlns="http://www.w3.org/2000/svg"><path fill="#d83b6f" d="M39.806 72.858h-8.915a3.94 3.94 0 01-3.94-3.94V31.119a3.94 3.94 0 013.94-3.94h8.915a3.94 3.94 0 013.94 3.94v37.799a3.94 3.94 0 01-3.94 3.94zM68.109 72.821h-8.915a3.94 3.94 0 01-3.94-3.94V31.082a3.94 3.94 0 013.94-3.94h8.915a3.94 3.94 0 013.94 3.94v37.799a3.94 3.94 0 01-3.94 3.94z"/><path d="M40.489 27.248a3.919 3.919 0 011.257 2.871v37.799a3.94 3.94 0 01-3.94 3.94h-8.915c-.234 0-.46-.03-.683-.069a3.916 3.916 0 002.683 1.069h8.915a3.94 3.94 0 003.94-3.94V31.119a3.934 3.934 0 00-3.257-3.871z"/><path fill="#e41cb2" d="M68.792 27.211a3.919 3.919 0 011.257 2.871v37.799a3.94 3.94 0 01-3.94 3.94h-8.915c-.234 0-.46-.03-.683-.069a3.916 3.916 0 002.683 1.069h8.915a3.94 3.94 0 003.94-3.94V31.082a3.933 3.933 0 00-3.257-3.871z"/><path fill="#d83b6f" d="M39.806 72.858h-8.915a3.94 3.94 0 01-3.94-3.94V31.119a3.94 3.94 0 013.94-3.94h8.915a3.94 3.94 0 013.94 3.94v37.799a3.94 3.94 0 01-3.94 3.94zM68.109 72.821h-8.915a3.94 3.94 0 01-3.94-3.94V31.082a3.94 3.94 0 013.94-3.94h8.915a3.94 3.94 0 013.94 3.94v37.799a3.94 3.94 0 01-3.94 3.94z" stroke="#000" stroke-miterlimit="10"/></svg><svg viewBox="0 0 128 128" id="reset" xmlns="http://www.w3.org/2000/svg"><g fill="#d83b6f"><path d="M96.1 103.6C85.7 112 72.6 116 59.3 114.7c-10.5-1-20.3-5.1-28.2-11.8H44v-8H18v26h8V109c9.1 7.7 20.4 12.5 32.6 13.6 1.9.2 3.7.3 5.5.3 13.5 0 26.5-4.6 37-13.2 19.1-15.4 26.6-40.5 19.1-63.9l-7.6 2.4c6.4 20.4 0 42.1-16.5 55.4zM103 19.7C81.8 1 49.5-.3 26.9 18.1 7.9 33.5.4 58.4 7.7 81.7l7.6-2.4c-6.3-20.1.2-41.7 16.6-54.9C51.6 8.4 79.7 9.6 98 26H85v8h26V8h-8v11.7z"/></g></svg><svg viewBox="0 0 16 16" id="start" xmlns="http://www.w3.org/2000/svg"><path d="M3 16l10-8L3 0v16z" fill="#d83b6f"/></svg></svg>